<?xml version="1.0" encoding="UTF-8"?>
<svg xmlns="http://www.w3.org/2000/svg" xmlns:xlink="http://www.w3.org/1999/xlink" viewBox="0 0 500 500" width="500px" height="500px">
<g id="surface2503310">
<path style=" stroke:none;fill-rule:nonzero;fill:rgb(100%,100%,100%);fill-opacity:1;" d="M 166.667969 62.5 C 109.230469 62.5 62.5 109.230469 62.5 166.667969 L 62.5 333.332031 C 62.5 390.769531 109.230469 437.5 166.667969 437.5 L 333.332031 437.5 C 390.769531 437.5 437.5 390.769531 437.5 333.332031 L 437.5 166.667969 C 437.5 109.230469 390.769531 62.5 333.332031 62.5 Z M 166.667969 104.167969 L 333.332031 104.167969 C 367.792969 104.167969 395.832031 132.207031 395.832031 166.667969 L 395.832031 333.332031 C 395.832031 367.792969 367.792969 395.832031 333.332031 395.832031 L 166.667969 395.832031 C 132.207031 395.832031 104.167969 367.792969 104.167969 333.332031 L 104.167969 166.667969 C 104.167969 132.207031 132.207031 104.167969 166.667969 104.167969 Z M 354.167969 125 C 342.660156 125 333.332031 134.328125 333.332031 145.832031 C 333.332031 157.339844 342.660156 166.667969 354.167969 166.667969 C 365.671875 166.667969 375 157.339844 375 145.832031 C 375 134.328125 365.671875 125 354.167969 125 Z M 250 145.832031 C 192.5625 145.832031 145.832031 192.5625 145.832031 250 C 145.832031 307.4375 192.5625 354.167969 250 354.167969 C 307.4375 354.167969 354.167969 307.4375 354.167969 250 C 354.167969 192.5625 307.4375 145.832031 250 145.832031 Z M 250 187.5 C 284.457031 187.5 312.5 215.542969 312.5 250 C 312.5 284.457031 284.457031 312.5 250 312.5 C 215.542969 312.5 187.5 284.457031 187.5 250 C 187.5 215.542969 215.542969 187.5 250 187.5 Z M 250 187.5 "/>
</g>
</svg>
