<?xml version="1.0" encoding="UTF-8"?>
<svg xmlns="http://www.w3.org/2000/svg" xmlns:xlink="http://www.w3.org/1999/xlink" viewBox="0 0 500 500" width="500px" height="500px">
<g id="surface46388162">
<path style=" stroke:none;fill-rule:nonzero;fill:rgb(100%,100%,100%);fill-opacity:1;" d="M 150 416.667969 L 66.667969 416.667969 L 66.667969 166.667969 L 150 166.667969 Z M 108.351562 133.332031 C 85.300781 133.332031 66.667969 114.648438 66.667969 91.648438 C 66.667969 68.648438 85.332031 50 108.351562 50 C 131.316406 50 150 68.683594 150 91.648438 C 150 114.648438 131.316406 133.332031 108.351562 133.332031 Z M 450 416.667969 L 369.882812 416.667969 L 369.882812 295 C 369.882812 265.984375 369.332031 228.667969 328.234375 228.667969 C 286.515625 228.667969 280.101562 260.265625 280.101562 292.898438 L 280.101562 416.667969 L 200 416.667969 L 200 166.484375 L 276.898438 166.484375 L 276.898438 200.667969 L 277.984375 200.667969 C 288.683594 181 314.832031 160.265625 353.832031 160.265625 C 435 160.265625 450 212.082031 450 279.449219 Z M 450 416.667969 "/>
</g>
</svg>
